<?xml version="1.0" encoding="UTF-8" standalone="no"?>
<!DOCTYPE svg PUBLIC "-//W3C//DTD SVG 1.1//EN"
 "http://www.w3.org/Graphics/SVG/1.1/DTD/svg11.dtd">
<!-- Generated by graphviz version 12.2.1 (20241206.2353)
 -->
<!-- Title: FlatcarMicroCloud &#45; Arquitectura de Infraestructura Pages: 1 -->
<svg width="1284pt" height="1535pt"
 viewBox="0.00 0.00 1284.00 1535.45" xmlns="http://www.w3.org/2000/svg" xmlns:xlink="http://www.w3.org/1999/xlink">
<g id="graph0" class="graph" transform="scale(1 1) rotate(0) translate(144 1391.45)">
<title>FlatcarMicroCloud &#45; Arquitectura de Infraestructura</title>
<polygon fill="white" stroke="none" points="-144,144 -144,-1391.45 1140,-1391.45 1140,144 -144,144"/>
<text text-anchor="middle" x="498" y="-7.75" font-family="Sans-Serif" font-size="15.00" fill="#2d3436">FlatcarMicroCloud &#45; Arquitectura de Infraestructura</text>
<g id="clust1" class="cluster">
<title>cluster_Ingress Kubernetes</title>
<path fill="#e5f5fd" stroke="#aeb6be" d="M362,-450.45C362,-450.45 598,-450.45 598,-450.45 604,-450.45 610,-456.45 610,-462.45 610,-462.45 610,-577.5 610,-577.5 610,-583.5 604,-589.5 598,-589.5 598,-589.5 362,-589.5 362,-589.5 356,-589.5 350,-583.5 350,-577.5 350,-577.5 350,-462.45 350,-462.45 350,-456.45 356,-450.45 362,-450.45"/>
<text text-anchor="middle" x="415" y="-574.1" font-family="Sans-Serif" font-size="12.00" fill="#2d3436">Ingress Kubernetes</text>
</g>
<g id="clust2" class="cluster">
<title>cluster_Kubernetes Control Plane</title>
<path fill="#e5f5fd" stroke="#aeb6be" d="M20,-34C20,-34 400,-34 400,-34 406,-34 412,-40 412,-46 412,-46 412,-254.65 412,-254.65 412,-260.65 406,-266.65 400,-266.65 400,-266.65 20,-266.65 20,-266.65 14,-266.65 8,-260.65 8,-254.65 8,-254.65 8,-46 8,-46 8,-40 14,-34 20,-34"/>
<text text-anchor="middle" x="91.38" y="-251.25" font-family="Sans-Serif" font-size="12.00" fill="#2d3436">Kubernetes Control Plane</text>
</g>
<g id="clust3" class="cluster">
<title>cluster_Workers + Almacenamiento</title>
<path fill="#e5f5fd" stroke="#aeb6be" d="M452,-34C452,-34 976,-34 976,-34 982,-34 988,-40 988,-46 988,-46 988,-254.65 988,-254.65 988,-260.65 982,-266.65 976,-266.65 976,-266.65 452,-266.65 452,-266.65 446,-266.65 440,-260.65 440,-254.65 440,-254.65 440,-46 440,-46 440,-40 446,-34 452,-34"/>
<text text-anchor="middle" x="532.38" y="-251.25" font-family="Sans-Serif" font-size="12.00" fill="#2d3436">Workers + Almacenamiento</text>
</g>
<g id="clust4" class="cluster">
<title>cluster_🧠 Servicios Complementarios</title>
<path fill="#e5f5fd" stroke="#aeb6be" d="M721,-1100.4C721,-1100.4 957,-1100.4 957,-1100.4 963,-1100.4 969,-1106.4 969,-1112.4 969,-1112.4 969,-1227.45 969,-1227.45 969,-1233.45 963,-1239.45 957,-1239.45 957,-1239.45 721,-1239.45 721,-1239.45 715,-1239.45 709,-1233.45 709,-1227.45 709,-1227.45 709,-1112.4 709,-1112.4 709,-1106.4 715,-1100.4 721,-1100.4"/>
<text text-anchor="middle" x="808.88" y="-1224.05" font-family="Sans-Serif" font-size="12.00" fill="#2d3436">🧠 Servicios Complementarios</text>
</g>
<!-- 7da5a919892c4de1b4d998dad8aff34f -->
<g id="node1" class="node">
<title>7da5a919892c4de1b4d998dad8aff34f</title>
<path fill="none" stroke="black" d="M517.4,-1209.2C517.4,-1209.2 440.6,-1209.2 440.6,-1209.2 434.6,-1209.2 428.6,-1203.2 428.6,-1197.2 428.6,-1197.2 428.6,-1120.4 428.6,-1120.4 428.6,-1114.4 434.6,-1108.4 440.6,-1108.4 440.6,-1108.4 517.4,-1108.4 517.4,-1108.4 523.4,-1108.4 529.4,-1114.4 529.4,-1120.4 529.4,-1120.4 529.4,-1197.2 529.4,-1197.2 529.4,-1203.2 523.4,-1209.2 517.4,-1209.2"/>
<text text-anchor="middle" x="479" y="-1112.55" font-family="Sans-Serif" font-size="13.00" fill="#2d3436">👥 Usuarios Públicos</text>
</g>
<!-- 7a8be899de9c49aabaa25a9bf3cb9dc6 -->
<g id="node2" class="node">
<title>7a8be899de9c49aabaa25a9bf3cb9dc6</title>
<path fill="none" stroke="black" d="M517.4,-1037.9C517.4,-1037.9 440.6,-1037.9 440.6,-1037.9 434.6,-1037.9 428.6,-1031.9 428.6,-1025.9 428.6,-1025.9 428.6,-949.1 428.6,-949.1 428.6,-943.1 434.6,-937.1 440.6,-937.1 440.6,-937.1 517.4,-937.1 517.4,-937.1 523.4,-937.1 529.4,-943.1 529.4,-949.1 529.4,-949.1 529.4,-1025.9 529.4,-1025.9 529.4,-1031.9 523.4,-1037.9 517.4,-1037.9"/>
<text text-anchor="middle" x="479" y="-957.75" font-family="Sans-Serif" font-size="13.00" fill="#2d3436">🌐 Cloudflare CDN</text>
<text text-anchor="middle" x="479" y="-941.25" font-family="Sans-Serif" font-size="13.00" fill="#2d3436">Proxy + WAF + Anti&#45;DDoS</text>
</g>
<!-- 7da5a919892c4de1b4d998dad8aff34f&#45;&gt;7a8be899de9c49aabaa25a9bf3cb9dc6 -->
<g id="edge1" class="edge">
<title>7da5a919892c4de1b4d998dad8aff34f&#45;&gt;7a8be899de9c49aabaa25a9bf3cb9dc6</title>
<path fill="none" stroke="#7b8894" d="M479,-1108.33C479,-1108.33 479,-1049.71 479,-1049.71"/>
<polygon fill="#7b8894" stroke="#7b8894" points="482.5,-1049.71 479,-1039.71 475.5,-1049.71 482.5,-1049.71"/>
<text text-anchor="middle" x="573.88" y="-1069.05" font-family="Sans-Serif" font-size="13.00" fill="#2d3436">HTTPS + Seguridad + Caché</text>
</g>
<!-- dcf00e49980d4507a9173551405e848c -->
<g id="node3" class="node">
<title>dcf00e49980d4507a9173551405e848c</title>
<path fill="none" stroke="black" d="M517.4,-882.1C517.4,-882.1 440.6,-882.1 440.6,-882.1 434.6,-882.1 428.6,-876.1 428.6,-870.1 428.6,-870.1 428.6,-793.3 428.6,-793.3 428.6,-787.3 434.6,-781.3 440.6,-781.3 440.6,-781.3 517.4,-781.3 517.4,-781.3 523.4,-781.3 529.4,-787.3 529.4,-793.3 529.4,-793.3 529.4,-870.1 529.4,-870.1 529.4,-876.1 523.4,-882.1 517.4,-882.1"/>
<text text-anchor="middle" x="479" y="-818.45" font-family="Sans-Serif" font-size="13.00" fill="#2d3436">VPS Público</text>
<text text-anchor="middle" x="479" y="-801.95" font-family="Sans-Serif" font-size="13.00" fill="#2d3436">WireGuard Gateway</text>
<text text-anchor="middle" x="479" y="-785.45" font-family="Sans-Serif" font-size="13.00" fill="#2d3436">10.17.0.1</text>
</g>
<!-- 7a8be899de9c49aabaa25a9bf3cb9dc6&#45;&gt;dcf00e49980d4507a9173551405e848c -->
<g id="edge2" class="edge">
<title>7a8be899de9c49aabaa25a9bf3cb9dc6&#45;&gt;dcf00e49980d4507a9173551405e848c</title>
<path fill="none" stroke="#7b8894" d="M479,-936.92C479,-936.92 479,-894.08 479,-894.08"/>
<polygon fill="#7b8894" stroke="#7b8894" points="482.5,-894.08 479,-884.08 475.5,-894.08 482.5,-894.08"/>
</g>
<!-- 02e8f41a72a94f9aa254017d80ff4b46 -->
<g id="node4" class="node">
<title>02e8f41a72a94f9aa254017d80ff4b46</title>
<path fill="none" stroke="black" d="M517.4,-726.3C517.4,-726.3 440.6,-726.3 440.6,-726.3 434.6,-726.3 428.6,-720.3 428.6,-714.3 428.6,-714.3 428.6,-637.5 428.6,-637.5 428.6,-631.5 434.6,-625.5 440.6,-625.5 440.6,-625.5 517.4,-625.5 517.4,-625.5 523.4,-625.5 529.4,-631.5 529.4,-637.5 529.4,-637.5 529.4,-714.3 529.4,-714.3 529.4,-720.3 523.4,-726.3 517.4,-726.3"/>
<text text-anchor="middle" x="479" y="-662.65" font-family="Sans-Serif" font-size="13.00" fill="#2d3436">Servidor Físico</text>
<text text-anchor="middle" x="479" y="-646.15" font-family="Sans-Serif" font-size="13.00" fill="#2d3436">WireGuard + NAT + nftables</text>
<text text-anchor="middle" x="479" y="-629.65" font-family="Sans-Serif" font-size="13.00" fill="#2d3436">192.168.0.19</text>
</g>
<!-- dcf00e49980d4507a9173551405e848c&#45;&gt;02e8f41a72a94f9aa254017d80ff4b46 -->
<g id="edge3" class="edge">
<title>dcf00e49980d4507a9173551405e848c&#45;&gt;02e8f41a72a94f9aa254017d80ff4b46</title>
<path fill="none" stroke="#7b8894" d="M479,-781.12C479,-781.12 479,-738.28 479,-738.28"/>
<polygon fill="#7b8894" stroke="#7b8894" points="482.5,-738.28 479,-728.28 475.5,-738.28 482.5,-738.28"/>
</g>
<!-- 1f35ae7c499d4670a7aad593aebeeea7 -->
<g id="node5" class="node">
<title>1f35ae7c499d4670a7aad593aebeeea7</title>
<path fill="none" stroke="black" d="M446.4,-559.25C446.4,-559.25 369.6,-559.25 369.6,-559.25 363.6,-559.25 357.6,-553.25 357.6,-547.25 357.6,-547.25 357.6,-470.45 357.6,-470.45 357.6,-464.45 363.6,-458.45 369.6,-458.45 369.6,-458.45 446.4,-458.45 446.4,-458.45 452.4,-458.45 458.4,-464.45 458.4,-470.45 458.4,-470.45 458.4,-547.25 458.4,-547.25 458.4,-553.25 452.4,-559.25 446.4,-559.25"/>
<text text-anchor="middle" x="408" y="-495.6" font-family="Sans-Serif" font-size="13.00" fill="#2d3436">Load Balancer 1 (Traefik)</text>
<text text-anchor="middle" x="408" y="-479.1" font-family="Sans-Serif" font-size="13.00" fill="#2d3436">10.17.3.12</text>
<text text-anchor="middle" x="408" y="-462.6" font-family="Sans-Serif" font-size="13.00" fill="#2d3436">loadbalancer1.cefaslocalserver.com</text>
</g>
<!-- 02e8f41a72a94f9aa254017d80ff4b46&#45;&gt;1f35ae7c499d4670a7aad593aebeeea7 -->
<g id="edge4" class="edge">
<title>02e8f41a72a94f9aa254017d80ff4b46&#45;&gt;1f35ae7c499d4670a7aad593aebeeea7</title>
<path fill="none" stroke="#7b8894" d="M443.5,-625.33C443.5,-625.33 443.5,-571.05 443.5,-571.05"/>
<polygon fill="#7b8894" stroke="#7b8894" points="447,-571.05 443.5,-561.05 440,-571.05 447,-571.05"/>
</g>
<!-- 7355e321a31c4bd393624e7b19b3d74f -->
<g id="node6" class="node">
<title>7355e321a31c4bd393624e7b19b3d74f</title>
<path fill="none" stroke="black" d="M590.4,-559.25C590.4,-559.25 513.6,-559.25 513.6,-559.25 507.6,-559.25 501.6,-553.25 501.6,-547.25 501.6,-547.25 501.6,-470.45 501.6,-470.45 501.6,-464.45 507.6,-458.45 513.6,-458.45 513.6,-458.45 590.4,-458.45 590.4,-458.45 596.4,-458.45 602.4,-464.45 602.4,-470.45 602.4,-470.45 602.4,-547.25 602.4,-547.25 602.4,-553.25 596.4,-559.25 590.4,-559.25"/>
<text text-anchor="middle" x="552" y="-495.6" font-family="Sans-Serif" font-size="13.00" fill="#2d3436">Load Balancer 2 (Traefik)</text>
<text text-anchor="middle" x="552" y="-479.1" font-family="Sans-Serif" font-size="13.00" fill="#2d3436">10.17.3.13</text>
<text text-anchor="middle" x="552" y="-462.6" font-family="Sans-Serif" font-size="13.00" fill="#2d3436">loadbalancer2.cefaslocalserver.com</text>
</g>
<!-- 02e8f41a72a94f9aa254017d80ff4b46&#45;&gt;7355e321a31c4bd393624e7b19b3d74f -->
<g id="edge5" class="edge">
<title>02e8f41a72a94f9aa254017d80ff4b46&#45;&gt;7355e321a31c4bd393624e7b19b3d74f</title>
<path fill="none" stroke="#7b8894" d="M515.5,-625.33C515.5,-625.33 515.5,-571.05 515.5,-571.05"/>
<polygon fill="#7b8894" stroke="#7b8894" points="519,-571.05 515.5,-561.05 512,-571.05 519,-571.05"/>
</g>
<!-- b27c665146174cefa87f00aa48e4f1f8 -->
<g id="node7" class="node">
<title>b27c665146174cefa87f00aa48e4f1f8</title>
<path fill="none" stroke="black" d="M536.4,-403.45C536.4,-403.45 459.6,-403.45 459.6,-403.45 453.6,-403.45 447.6,-397.45 447.6,-391.45 447.6,-391.45 447.6,-314.65 447.6,-314.65 447.6,-308.65 453.6,-302.65 459.6,-302.65 459.6,-302.65 536.4,-302.65 536.4,-302.65 542.4,-302.65 548.4,-308.65 548.4,-314.65 548.4,-314.65 548.4,-391.45 548.4,-391.45 548.4,-397.45 542.4,-403.45 536.4,-403.45"/>
<text text-anchor="middle" x="498" y="-356.3" font-family="Sans-Serif" font-size="13.00" fill="#2d3436">HAProxy + Keepalived</text>
<text text-anchor="middle" x="498" y="-339.8" font-family="Sans-Serif" font-size="13.00" fill="#2d3436">VIP: 10.17.5.10</text>
<text text-anchor="middle" x="498" y="-323.3" font-family="Sans-Serif" font-size="13.00" fill="#2d3436">HA: 10.17.5.20</text>
<text text-anchor="middle" x="498" y="-306.8" font-family="Sans-Serif" font-size="13.00" fill="#2d3436">k8s&#45;api&#45;lb.cefaslocalserver.com</text>
</g>
<!-- 1f35ae7c499d4670a7aad593aebeeea7&#45;&gt;b27c665146174cefa87f00aa48e4f1f8 -->
<g id="edge6" class="edge">
<title>1f35ae7c499d4670a7aad593aebeeea7&#45;&gt;b27c665146174cefa87f00aa48e4f1f8</title>
<path fill="none" stroke="#7b8894" d="M453,-458.27C453,-458.27 453,-415.43 453,-415.43"/>
<polygon fill="#7b8894" stroke="#7b8894" points="456.5,-415.43 453,-405.43 449.5,-415.43 456.5,-415.43"/>
</g>
<!-- 7355e321a31c4bd393624e7b19b3d74f&#45;&gt;b27c665146174cefa87f00aa48e4f1f8 -->
<g id="edge7" class="edge">
<title>7355e321a31c4bd393624e7b19b3d74f&#45;&gt;b27c665146174cefa87f00aa48e4f1f8</title>
<path fill="none" stroke="#7b8894" d="M525,-458.27C525,-458.27 525,-415.43 525,-415.43"/>
<polygon fill="#7b8894" stroke="#7b8894" points="528.5,-415.43 525,-405.43 521.5,-415.43 528.5,-415.43"/>
</g>
<!-- 27b186a54070439c8828dd45a5931df3 -->
<g id="node8" class="node">
<title>27b186a54070439c8828dd45a5931df3</title>
<image xlink:href="C:\ProgramData\anaconda3\envs\diagrams\Lib\site-packages\resources/k8s/compute\sts.png" width="100.8px" height="100.8px" preserveAspectRatio="xMinYMin meet" x="15.6" y="-189.6"/>
<text text-anchor="middle" x="66" y="-79.15" font-family="Sans-Serif" font-size="13.00" fill="#2d3436">master1.cefaslocalserver.com</text>
<text text-anchor="middle" x="66" y="-62.65" font-family="Sans-Serif" font-size="13.00" fill="#2d3436">10.17.4.21</text>
<text text-anchor="middle" x="66" y="-46.15" font-family="Sans-Serif" font-size="13.00" fill="#2d3436">Flatcar / etcd + API</text>
</g>
<!-- b27c665146174cefa87f00aa48e4f1f8&#45;&gt;27b186a54070439c8828dd45a5931df3 -->
<g id="edge8" class="edge">
<title>b27c665146174cefa87f00aa48e4f1f8&#45;&gt;27b186a54070439c8828dd45a5931df3</title>
<path fill="none" stroke="#7b8894" d="M447.17,-378C332.98,-378 66,-378 66,-378 66,-378 66,-247.84 66,-247.84"/>
<polygon fill="#7b8894" stroke="#7b8894" points="69.5,-247.84 66,-237.84 62.5,-247.84 69.5,-247.84"/>
</g>
<!-- 8357d29356e3483a81735d2f81d4ba3e -->
<g id="node9" class="node">
<title>8357d29356e3483a81735d2f81d4ba3e</title>
<image xlink:href="C:\ProgramData\anaconda3\envs\diagrams\Lib\site-packages\resources/k8s/compute\sts.png" width="100.8px" height="100.8px" preserveAspectRatio="xMinYMin meet" x="159.6" y="-189.6"/>
<text text-anchor="middle" x="210" y="-79.15" font-family="Sans-Serif" font-size="13.00" fill="#2d3436">master2.cefaslocalserver.com</text>
<text text-anchor="middle" x="210" y="-62.65" font-family="Sans-Serif" font-size="13.00" fill="#2d3436">10.17.4.22</text>
<text text-anchor="middle" x="210" y="-46.15" font-family="Sans-Serif" font-size="13.00" fill="#2d3436">Flatcar / etcd</text>
</g>
<!-- b27c665146174cefa87f00aa48e4f1f8&#45;&gt;8357d29356e3483a81735d2f81d4ba3e -->
<g id="edge9" class="edge">
<title>b27c665146174cefa87f00aa48e4f1f8&#45;&gt;8357d29356e3483a81735d2f81d4ba3e</title>
<path fill="none" stroke="#7b8894" d="M447.17,-353C364.5,-353 210,-353 210,-353 210,-353 210,-247.6 210,-247.6"/>
<polygon fill="#7b8894" stroke="#7b8894" points="213.5,-247.6 210,-237.6 206.5,-247.6 213.5,-247.6"/>
</g>
<!-- 278b80f841fc4218804c36c937cfaa37 -->
<g id="node10" class="node">
<title>278b80f841fc4218804c36c937cfaa37</title>
<image xlink:href="C:\ProgramData\anaconda3\envs\diagrams\Lib\site-packages\resources/k8s/compute\sts.png" width="100.8px" height="100.8px" preserveAspectRatio="xMinYMin meet" x="303.6" y="-189.6"/>
<text text-anchor="middle" x="354" y="-79.15" font-family="Sans-Serif" font-size="13.00" fill="#2d3436">master3.cefaslocalserver.com</text>
<text text-anchor="middle" x="354" y="-62.65" font-family="Sans-Serif" font-size="13.00" fill="#2d3436">10.17.4.23</text>
<text text-anchor="middle" x="354" y="-46.15" font-family="Sans-Serif" font-size="13.00" fill="#2d3436">Flatcar / etcd</text>
</g>
<!-- b27c665146174cefa87f00aa48e4f1f8&#45;&gt;278b80f841fc4218804c36c937cfaa37 -->
<g id="edge10" class="edge">
<title>b27c665146174cefa87f00aa48e4f1f8&#45;&gt;278b80f841fc4218804c36c937cfaa37</title>
<path fill="none" stroke="#7b8894" d="M447.36,-328C415.74,-328 381,-328 381,-328 381,-328 381,-247.88 381,-247.88"/>
<polygon fill="#7b8894" stroke="#7b8894" points="384.5,-247.88 381,-237.88 377.5,-247.88 384.5,-247.88"/>
</g>
<!-- 9264d782e0bd44c88857bee7843ba5fb -->
<g id="node11" class="node">
<title>9264d782e0bd44c88857bee7843ba5fb</title>
<image xlink:href="C:\ProgramData\anaconda3\envs\diagrams\Lib\site-packages\resources/k8s/compute\pod.png" width="100.8px" height="100.8px" preserveAspectRatio="xMinYMin meet" x="447.6" y="-189.6"/>
<text text-anchor="middle" x="498" y="-79.15" font-family="Sans-Serif" font-size="13.00" fill="#2d3436">worker1.cefaslocalserver.com</text>
<text text-anchor="middle" x="498" y="-62.65" font-family="Sans-Serif" font-size="13.00" fill="#2d3436">10.17.4.24</text>
<text text-anchor="middle" x="498" y="-46.15" font-family="Sans-Serif" font-size="13.00" fill="#2d3436">Flatcar / Longhorn</text>
</g>
<!-- b27c665146174cefa87f00aa48e4f1f8&#45;&gt;9264d782e0bd44c88857bee7843ba5fb -->
<g id="edge11" class="edge">
<title>b27c665146174cefa87f00aa48e4f1f8&#45;&gt;9264d782e0bd44c88857bee7843ba5fb</title>
<path fill="none" stroke="#7b8894" d="M498,-302.37C498,-302.37 498,-247.59 498,-247.59"/>
<polygon fill="#7b8894" stroke="#7b8894" points="501.5,-247.59 498,-237.59 494.5,-247.59 501.5,-247.59"/>
</g>
<!-- 4a8a72c0d72b45d0b99b5e64fbffc4f7 -->
<g id="node12" class="node">
<title>4a8a72c0d72b45d0b99b5e64fbffc4f7</title>
<image xlink:href="C:\ProgramData\anaconda3\envs\diagrams\Lib\site-packages\resources/k8s/compute\pod.png" width="100.8px" height="100.8px" preserveAspectRatio="xMinYMin meet" x="591.6" y="-189.6"/>
<text text-anchor="middle" x="642" y="-79.15" font-family="Sans-Serif" font-size="13.00" fill="#2d3436">worker2.cefaslocalserver.com</text>
<text text-anchor="middle" x="642" y="-62.65" font-family="Sans-Serif" font-size="13.00" fill="#2d3436">10.17.4.25</text>
<text text-anchor="middle" x="642" y="-46.15" font-family="Sans-Serif" font-size="13.00" fill="#2d3436">Flatcar / Longhorn</text>
</g>
<!-- b27c665146174cefa87f00aa48e4f1f8&#45;&gt;4a8a72c0d72b45d0b99b5e64fbffc4f7 -->
<g id="edge12" class="edge">
<title>b27c665146174cefa87f00aa48e4f1f8&#45;&gt;4a8a72c0d72b45d0b99b5e64fbffc4f7</title>
<path fill="none" stroke="#7b8894" d="M548.66,-328C573.02,-328 597,-328 597,-328 597,-328 597,-247.88 597,-247.88"/>
<polygon fill="#7b8894" stroke="#7b8894" points="600.5,-247.88 597,-237.88 593.5,-247.88 600.5,-247.88"/>
</g>
<!-- 44708926923c43f3add7cf7bd49da552 -->
<g id="node13" class="node">
<title>44708926923c43f3add7cf7bd49da552</title>
<image xlink:href="C:\ProgramData\anaconda3\envs\diagrams\Lib\site-packages\resources/k8s/compute\pod.png" width="100.8px" height="100.8px" preserveAspectRatio="xMinYMin meet" x="735.6" y="-189.6"/>
<text text-anchor="middle" x="786" y="-79.15" font-family="Sans-Serif" font-size="13.00" fill="#2d3436">worker3.cefaslocalserver.com</text>
<text text-anchor="middle" x="786" y="-62.65" font-family="Sans-Serif" font-size="13.00" fill="#2d3436">10.17.4.26</text>
<text text-anchor="middle" x="786" y="-46.15" font-family="Sans-Serif" font-size="13.00" fill="#2d3436">Flatcar / Longhorn</text>
</g>
<!-- b27c665146174cefa87f00aa48e4f1f8&#45;&gt;44708926923c43f3add7cf7bd49da552 -->
<g id="edge13" class="edge">
<title>b27c665146174cefa87f00aa48e4f1f8&#45;&gt;44708926923c43f3add7cf7bd49da552</title>
<path fill="none" stroke="#7b8894" d="M548.76,-353C629.09,-353 776.5,-353 776.5,-353 776.5,-353 776.5,-247.6 776.5,-247.6"/>
<polygon fill="#7b8894" stroke="#7b8894" points="780,-247.6 776.5,-237.6 773,-247.6 780,-247.6"/>
</g>
<!-- 213e20b096d447629a0d98775cbf565c -->
<g id="node14" class="node">
<title>213e20b096d447629a0d98775cbf565c</title>
<image xlink:href="C:\ProgramData\anaconda3\envs\diagrams\Lib\site-packages\resources/k8s/compute\pod.png" width="100.8px" height="100.8px" preserveAspectRatio="xMinYMin meet" x="879.6" y="-189.6"/>
<text text-anchor="middle" x="930" y="-79.15" font-family="Sans-Serif" font-size="13.00" fill="#2d3436">storage1.cefaslocalserver.com</text>
<text text-anchor="middle" x="930" y="-62.65" font-family="Sans-Serif" font-size="13.00" fill="#2d3436">10.17.3.27</text>
<text text-anchor="middle" x="930" y="-46.15" font-family="Sans-Serif" font-size="13.00" fill="#2d3436">AlmaLinux / 🐂 Longhorn + 📁 NFS</text>
</g>
<!-- b27c665146174cefa87f00aa48e4f1f8&#45;&gt;213e20b096d447629a0d98775cbf565c -->
<g id="edge14" class="edge">
<title>b27c665146174cefa87f00aa48e4f1f8&#45;&gt;213e20b096d447629a0d98775cbf565c</title>
<path fill="none" stroke="#7b8894" d="M548.54,-378C660.69,-378 920.5,-378 920.5,-378 920.5,-378 920.5,-247.84 920.5,-247.84"/>
<polygon fill="#7b8894" stroke="#7b8894" points="924,-247.84 920.5,-237.84 917,-247.84 924,-247.84"/>
</g>
<!-- 0686c9607042491d838c81e21a2a4f48 -->
<g id="node15" class="node">
<title>0686c9607042491d838c81e21a2a4f48</title>
<path fill="none" stroke="black" d="M805.4,-1209.2C805.4,-1209.2 728.6,-1209.2 728.6,-1209.2 722.6,-1209.2 716.6,-1203.2 716.6,-1197.2 716.6,-1197.2 716.6,-1120.4 716.6,-1120.4 716.6,-1114.4 722.6,-1108.4 728.6,-1108.4 728.6,-1108.4 805.4,-1108.4 805.4,-1108.4 811.4,-1108.4 817.4,-1114.4 817.4,-1120.4 817.4,-1120.4 817.4,-1197.2 817.4,-1197.2 817.4,-1203.2 811.4,-1209.2 805.4,-1209.2"/>
<text text-anchor="middle" x="767" y="-1162.05" font-family="Sans-Serif" font-size="13.00" fill="#2d3436">CoreDNS</text>
<text text-anchor="middle" x="767" y="-1145.55" font-family="Sans-Serif" font-size="13.00" fill="#2d3436">10.17.3.11</text>
<text text-anchor="middle" x="767" y="-1129.05" font-family="Sans-Serif" font-size="13.00" fill="#2d3436">infra&#45;cluster.cefaslocalserver.com</text>
<text text-anchor="middle" x="767" y="-1112.55" font-family="Sans-Serif" font-size="13.00" fill="#2d3436">DNS interno + NTP</text>
</g>
<!-- 26f0aeb491304468b3cedd8c22f1b807 -->
<g id="node16" class="node">
<title>26f0aeb491304468b3cedd8c22f1b807</title>
<path fill="none" stroke="black" d="M949.4,-1209.2C949.4,-1209.2 872.6,-1209.2 872.6,-1209.2 866.6,-1209.2 860.6,-1203.2 860.6,-1197.2 860.6,-1197.2 860.6,-1120.4 860.6,-1120.4 860.6,-1114.4 866.6,-1108.4 872.6,-1108.4 872.6,-1108.4 949.4,-1108.4 949.4,-1108.4 955.4,-1108.4 961.4,-1114.4 961.4,-1120.4 961.4,-1120.4 961.4,-1197.2 961.4,-1197.2 961.4,-1203.2 955.4,-1209.2 949.4,-1209.2"/>
<text text-anchor="middle" x="911" y="-1162.05" font-family="Sans-Serif" font-size="13.00" fill="#2d3436">PostgreSQL</text>
<text text-anchor="middle" x="911" y="-1145.55" font-family="Sans-Serif" font-size="13.00" fill="#2d3436">10.17.3.14</text>
<text text-anchor="middle" x="911" y="-1129.05" font-family="Sans-Serif" font-size="13.00" fill="#2d3436">postgresql1.cefaslocalserver.com</text>
<text text-anchor="middle" x="911" y="-1112.55" font-family="Sans-Serif" font-size="13.00" fill="#2d3436">DB centralizada</text>
</g>
</g>
</svg>
